<?xml version="1.0" standalone="no"?>
<!DOCTYPE svg PUBLIC "-//W3C//DTD SVG 20010904//EN"
 "http://www.w3.org/TR/2001/REC-SVG-20010904/DTD/svg10.dtd">
<svg version="1.0" xmlns="http://www.w3.org/2000/svg"
 width="216.000000pt" height="216.000000pt" viewBox="0 0 216.000000 216.000000"
 preserveAspectRatio="xMidYMid meet">
<metadata>
Created by potrace 1.11, written by Peter Selinger 2001-2013
</metadata>
<g transform="translate(0.000000,216.000000) scale(0.100000,-0.100000)"
fill="#000000" stroke="none">
<path d="M184 2098 c-12 -83 -4 -209 18 -293 5 -22 11 -47 13 -55 2 -8 11 -37
20 -63 24 -71 12 -68 -24 5 -34 69 -57 153 -66 237 -3 30 -7 56 -9 58 -5 6
-18 -91 -21 -156 -3 -61 17 -186 40 -251 l16 -45 -27 30 c-14 17 -30 37 -34
45 -20 36 -22 -7 -2 -85 20 -81 49 -150 95 -225 l21 -35 -37 22 -37 22 15 -30
c22 -41 127 -144 192 -187 54 -35 70 -59 33 -47 -33 10 -23 -4 48 -73 37 -36
58 -62 48 -58 -17 6 -17 5 -5 -11 8 -10 27 -29 44 -43 16 -14 56 -50 89 -81
l59 -56 -27 -24 c-25 -23 -25 -25 -5 -26 11 -1 44 -10 72 -19 47 -16 50 -18
27 -24 -23 -7 -24 -8 -5 -15 11 -4 35 -14 52 -23 27 -14 30 -18 17 -25 -21
-12 -6 -22 50 -38 29 -8 36 -13 25 -20 -12 -7 -12 -9 1 -10 8 -1 23 0 33 1 16
1 17 -2 8 -19 -6 -11 -11 -22 -11 -25 0 -7 50 3 70 14 15 8 16 5 12 -18 -3
-15 -13 -38 -23 -51 -22 -27 -25 -100 -8 -134 6 -12 25 -37 43 -55 27 -29 29
-35 15 -42 -30 -17 -69 -78 -74 -117 l-6 -38 25 27 c14 16 29 34 33 40 5 7 23
26 41 42 l32 30 26 -25 c15 -13 42 -46 60 -74 l34 -50 0 39 c0 37 -21 75 -66
120 -14 15 -12 20 25 62 58 66 65 127 21 186 -11 15 -16 28 -11 28 6 0 7 8 4
17 -5 13 -3 15 13 8 22 -9 86 -18 66 -9 -6 3 -12 14 -12 23 0 14 6 17 28 13
24 -5 26 -4 13 11 -12 15 -11 17 8 17 12 0 36 7 53 16 23 12 28 18 17 24 -7 5
-11 11 -9 12 25 20 62 38 75 38 9 0 13 5 10 10 -4 6 -11 8 -16 5 -5 -4 -9 -1
-9 4 0 6 9 11 19 11 11 0 22 4 25 9 4 5 24 12 47 16 39 7 40 8 20 22 -31 21
-26 38 26 87 129 119 157 147 133 136 -15 -7 2 15 43 55 37 37 67 70 67 72 0
3 -9 3 -21 0 -32 -9 -20 5 71 78 91 73 127 110 156 159 l18 31 -27 -18 c-39
-25 -51 -21 -29 11 51 72 97 191 107 277 l6 50 -20 -23 c-11 -13 -29 -36 -40
-50 -17 -24 -17 -18 6 58 22 72 26 104 26 205 -1 66 -6 134 -11 150 l-10 30
-2 -30 c-1 -16 -3 -38 -5 -47 -2 -9 -6 -36 -9 -60 -9 -62 -42 -157 -72 -203
-19 -29 -24 -33 -19 -15 4 14 18 66 31 115 14 50 28 110 31 135 9 67 5 218 -6
238 -8 14 -11 14 -11 2 -4 -53 -38 -184 -67 -258 -21 -53 -27 -60 -37 -47 -10
14 -15 6 -33 -47 -20 -57 -22 -60 -23 -28 0 32 -5 26 -49 -63 -58 -118 -67
-129 -69 -84 -1 18 -5 44 -11 58 l-9 24 -7 -30 c-13 -58 -17 -61 -29 -20 l-12
40 -13 -50 c-12 -50 -62 -147 -100 -195 -15 -19 -21 -21 -24 -10 -3 8 -10 35
-17 60 l-13 45 -12 -58 c-13 -63 -35 -99 -35 -57 0 31 -12 17 -34 -40 -17 -48
-58 -106 -55 -80 1 8 1 29 -1 45 -1 25 -3 27 -9 10 -7 -17 -9 -15 -20 16 -6
20 -21 45 -32 55 -20 18 -20 18 -9 -11 6 -16 13 -50 15 -75 4 -45 4 -45 -11
-17 -8 15 -16 27 -17 27 -1 0 -3 -34 -3 -76 -1 -42 -7 -81 -13 -87 -8 -8 -11
-5 -11 10 0 11 -8 31 -18 43 l-18 23 4 -34 c2 -19 -6 -62 -17 -97 -29 -95 -19
-127 51 -163 48 -25 78 -81 73 -136 -5 -52 -39 -141 -67 -177 -119 -151 -115
-149 -177 -78 -28 31 -51 60 -51 65 0 4 -8 15 -19 26 -26 26 -63 128 -63 176
-1 62 25 108 77 133 65 31 72 57 46 157 -12 44 -21 91 -21 104 0 24 0 24 -15
5 -8 -10 -15 -27 -15 -36 0 -9 -4 -19 -8 -22 -9 -5 -16 44 -16 112 0 46 -11
55 -26 20 -6 -16 -7 -6 -3 32 3 30 9 63 14 72 7 13 6 16 -4 12 -14 -5 -29 -30
-42 -69 -5 -16 -8 -17 -15 -5 -7 11 -10 4 -10 -23 0 -23 -4 -36 -10 -32 -14 9
-60 101 -60 120 0 8 -4 15 -10 15 -5 0 -10 -10 -10 -22 0 -36 -17 -3 -31 60
-10 41 -15 50 -22 37 -10 -19 -15 -40 -17 -75 -1 -25 -1 -25 -31 10 -37 43
-98 166 -101 203 -3 38 -16 34 -24 -9 -8 -42 -22 -28 -26 25 -3 43 -18 24 -26
-35 l-7 -49 -28 48 c-15 26 -41 74 -57 108 -26 56 -29 58 -32 32 -3 -24 -6
-20 -23 31 -17 51 -20 56 -29 37 -9 -21 -10 -20 -24 11 -35 82 -69 212 -76
290 -1 3 -4 9 -7 13 -4 3 -10 -18 -15 -47z m901 -1658 c3 -5 -1 -10 -10 -10
-9 0 -13 5 -10 10 3 6 8 10 10 10 2 0 7 -4 10 -10z m45 -45 c8 -10 -4 -12 -54
-12 -47 1 -62 5 -55 13 12 15 96 14 109 -1z m28 -40 c34 -13 -5 -21 -85 -18
-88 4 -107 8 -86 21 12 8 149 5 171 -3z m-5 -44 c5 -1 5 -5 2 -11 -10 -16
-162 -13 -168 3 -4 10 13 13 77 11 44 -1 85 -2 89 -3z m-42 -55 c-14 -17 -66
-15 -83 2 -9 9 0 12 41 12 45 0 52 -2 42 -14z"/>
</g>
</svg>
